HIERARCHY
ROOT Hips
{
  OFFSET 5.84602e-005 68.8428 3.50346
  CHANNELS 6 Xposition Yposition Zposition Zrotation Xrotation Yrotation
  JOINT Spine
  {
    OFFSET 0 8.597 -4.6522
    CHANNELS 3 Zrotation Xrotation Yrotation
    JOINT Spine1
    {
      OFFSET 0 7.8454 0.4098
      CHANNELS 3 Zrotation Xrotation Yrotation
      JOINT Spine2
      {
        OFFSET 0 9.7078 -2.1609
        CHANNELS 3 Zrotation Xrotation Yrotation
        JOINT Neck
        {
          OFFSET 0 21.8761 -0.4549
          CHANNELS 3 Zrotation Xrotation Yrotation
          JOINT Head
          {
            OFFSET 0 12.3537 3.3602
            CHANNELS 3 Zrotation Xrotation Yrotation
            End Site
            {
              OFFSET 0.0001 18.9506 0.5657
            }
          }
        }
        JOINT LeftShoulder
        {
          OFFSET 2.2086 21.1115 7.2329
          CHANNELS 3 Zrotation Xrotation Yrotation
          JOINT LeftArm
          {
            OFFSET 13.1193 3.0282 -4.8998
            CHANNELS 3 Zrotation Xrotation Yrotation
            JOINT LeftForeArm
            {
              OFFSET 27.4081 -0.0973053 -0.2375
              CHANNELS 3 Zrotation Xrotation Yrotation
              JOINT LeftHand
              {
                OFFSET 22.8641 0.0662994 -0.1369
                CHANNELS 3 Zrotation Xrotation Yrotation
                JOINT LeftHandIndex1
                {
                  OFFSET 8.8614 0.775009 2.4612
                  CHANNELS 3 Zrotation Xrotation Yrotation
                  JOINT LeftHandIndex2
                  {
                    OFFSET 3.3146 -0.808304 0.5841
                    CHANNELS 3 Zrotation Xrotation Yrotation
                    JOINT LeftHandIndex3
                    {
                      OFFSET 2.2628 -0.552002 0.3989
                      CHANNELS 3 Zrotation Xrotation Yrotation
                      End Site
                      {
                        OFFSET 1.6102 -0.4807 0.2612
                      }
                    }
                  }
                }
                JOINT LeftHandMiddle1
                {
                  OFFSET 8.9937 0.895004 0.2143
                  CHANNELS 3 Zrotation Xrotation Yrotation
                  JOINT LeftHandMiddle2
                  {
                    OFFSET 4.0984 0.0113983 -0.0242
                    CHANNELS 3 Zrotation Xrotation Yrotation
                    JOINT LeftHandMiddle3
                    {
                      OFFSET 2.2716 0.00689697 -0.0138001
                      CHANNELS 3 Zrotation Xrotation Yrotation
                      End Site
                      {
                        OFFSET 2.0404 -0.1441 0.0027
                      }
                    }
                  }
                }
                JOINT LeftHandRing1
                {
                  OFFSET 8.5234 0.597198 -2.0164
                  CHANNELS 3 Zrotation Xrotation Yrotation
                  JOINT LeftHandRing2
                  {
                    OFFSET 3.7188 -0.188293 -0.2328
                    CHANNELS 3 Zrotation Xrotation Yrotation
                    JOINT LeftHandRing3
                    {
                      OFFSET 2.1191 -0.106598 -0.1332
                      CHANNELS 3 Zrotation Xrotation Yrotation
                      End Site
                      {
                        OFFSET 1.8737 -0.2304 -0.0886
                      }
                    }
                  }
                }
                JOINT LeftHandPinky1
                {
                  OFFSET 7.9094 -0.601089 -3.4825
                  CHANNELS 3 Zrotation Xrotation Yrotation
                  JOINT LeftHandPinky2
                  {
                    OFFSET 2.2874 -0.477005 -0.6314
                    CHANNELS 3 Zrotation Xrotation Yrotation
                    JOINT LeftHandPinky3
                    {
                      OFFSET 1.6774 -0.349396 -0.4633
                      CHANNELS 3 Zrotation Xrotation Yrotation
                      End Site
                      {
                        OFFSET 1.4888 -0.4091 -0.3416
                      }
                    }
                  }
                }
                JOINT LeftHandThumb1
                {
                  OFFSET 1.833 -1.3875 1.3896
                  CHANNELS 3 Zrotation Xrotation Yrotation
                  JOINT LeftHandThumb2
                  {
                    OFFSET 3.4129 -1.121 2.5732
                    CHANNELS 3 Zrotation Xrotation Yrotation
                    JOINT LeftHandThumb3
                    {
                      OFFSET 2.2474 -0.804199 1.6192
                      CHANNELS 3 Zrotation Xrotation Yrotation
                      End Site
                      {
                        OFFSET 1.6527 -0.5689 1.1317
                      }
                    }
                  }
                }
              }
            }
          }
        }
        JOINT RightShoulder
        {
          OFFSET -2.2086 21.1115 7.2329
          CHANNELS 3 Zrotation Xrotation Yrotation
          JOINT RightArm
          {
            OFFSET -13.1216 3.0287 -4.9007
            CHANNELS 3 Zrotation Xrotation Yrotation
            JOINT RightForeArm
            {
              OFFSET -27.4081 -0.0973053 -0.2375
              CHANNELS 3 Zrotation Xrotation Yrotation
              JOINT RightHand
              {
                OFFSET -22.8641 0.0664063 -0.1369
                CHANNELS 3 Zrotation Xrotation Yrotation
                JOINT RightHandIndex1
                {
                  OFFSET -8.8614 0.774994 2.4612
                  CHANNELS 3 Zrotation Xrotation Yrotation
                  JOINT RightHandIndex2
                  {
                    OFFSET -3.3146 -0.808304 0.5841
                    CHANNELS 3 Zrotation Xrotation Yrotation
                    JOINT RightHandIndex3
                    {
                      OFFSET -2.2628 -0.552002 0.3989
                      CHANNELS 3 Zrotation Xrotation Yrotation
                      End Site
                      {
                        OFFSET -1.6102 -0.4807 0.2612
                      }
                    }
                  }
                }
                JOINT RightHandMiddle1
                {
                  OFFSET -8.9937 0.894989 0.2143
                  CHANNELS 3 Zrotation Xrotation Yrotation
                  JOINT RightHandMiddle2
                  {
                    OFFSET -4.0984 0.0113983 -0.0242
                    CHANNELS 3 Zrotation Xrotation Yrotation
                    JOINT RightHandMiddle3
                    {
                      OFFSET -2.2716 0.00691223 -0.0138001
                      CHANNELS 3 Zrotation Xrotation Yrotation
                      End Site
                      {
                        OFFSET -2.0404 -0.1441 0.0027
                      }
                    }
                  }
                }
                JOINT RightHandRing1
                {
                  OFFSET -8.5234 0.597198 -2.0164
                  CHANNELS 3 Zrotation Xrotation Yrotation
                  JOINT RightHandRing2
                  {
                    OFFSET -3.7188 -0.188309 -0.2328
                    CHANNELS 3 Zrotation Xrotation Yrotation
                    JOINT RightHandRing3
                    {
                      OFFSET -2.1191 -0.106598 -0.1332
                      CHANNELS 3 Zrotation Xrotation Yrotation
                      End Site
                      {
                        OFFSET -1.8737 -0.2304 -0.0886
                      }
                    }
                  }
                }
                JOINT RightHandPinky1
                {
                  OFFSET -7.9094 -0.601105 -3.4825
                  CHANNELS 3 Zrotation Xrotation Yrotation
                  JOINT RightHandPinky2
                  {
                    OFFSET -2.2874 -0.477005 -0.6314
                    CHANNELS 3 Zrotation Xrotation Yrotation
                    JOINT RightHandPinky3
                    {
                      OFFSET -1.6774 -0.349396 -0.4633
                      CHANNELS 3 Zrotation Xrotation Yrotation
                      End Site
                      {
                        OFFSET -1.4888 -0.4091 -0.3416
                      }
                    }
                  }
                }
                JOINT RightHandThumb1
                {
                  OFFSET -1.833 -1.38751 1.3896
                  CHANNELS 3 Zrotation Xrotation Yrotation
                  JOINT RightHandThumb2
                  {
                    OFFSET -3.41299 -1.12099 2.5732
                    CHANNELS 3 Zrotation Xrotation Yrotation
                    JOINT RightHandThumb3
                    {
                      OFFSET -2.24741 -0.804108 1.6192
                      CHANNELS 3 Zrotation Xrotation Yrotation
                      End Site
                      {
                        OFFSET -1.6527 -0.5689 1.1317
                      }
                    }
                  }
                }
              }
            }
          }
        }
      }
    }
  }
  JOINT RightUpLeg
  {
    OFFSET -9.1966 3.8861 -0.7581
    CHANNELS 3 Zrotation Xrotation Yrotation
    JOINT RightLeg
    {
      OFFSET -0.7359 -41.0265 0
      CHANNELS 3 Zrotation Xrotation Yrotation
      JOINT RightFoot
      {
        OFFSET 0 -40.2855 0
        CHANNELS 3 Zrotation Xrotation Yrotation
        JOINT RightToeBase
        {
          OFFSET 0 -5.6122 11.7359
          CHANNELS 3 Zrotation Xrotation Yrotation
          End Site
          {
            OFFSET 0 0 7.8731
          }
        }
      }
    }
  }
  JOINT LeftUpLeg
  {
    OFFSET 9.1965 3.8864 -0.7581
    CHANNELS 3 Zrotation Xrotation Yrotation
    JOINT LeftLeg
    {
      OFFSET 0.7359 -41.0268 0
      CHANNELS 3 Zrotation Xrotation Yrotation
      JOINT LeftFoot
      {
        OFFSET 0 -40.2855 0
        CHANNELS 3 Zrotation Xrotation Yrotation
        JOINT LeftToeBase
        {
          OFFSET 0 -5.6122 11.7359
          CHANNELS 3 Zrotation Xrotation Yrotation
          End Site
          {
            OFFSET 0 0 7.8731
          }
        }
      }
    }
  }
}
MOTION
Frames:	4
Frame Time:	0.0333333
5.84602e-005 68.8428 3.50346 0 0 -0 0 0 -0 0 0 -0 0 0 -0 0 0 -0 0 0 -0 0 0 -0 0 0 -0 0 0 -0 0 0 -0 0 0 -0 0 0 -0 0 0 -0 0 0 -0 -0.0146107 -8.87603e-005 -2.63497e-007 2.99804e-018 -2.42657e-020 -1.42182e-022 0 0 -0 -0.0187562 -0.001176 5.858e-005 5.06224e-018 3.88251e-019 1.21329e-020 0 0 -0 -0.012269 -0.00324817 0.000675346 -1.74678e-018 3.88251e-019 -0 0 0 -0 0 0 -0 0 0 -0 0 0 -0 0 0 -0 0 0 -0 0 0 -0 0 0 -0 0 0 -0 0 0 -0 0 0 -0 0.0149955 -9.10982e-005 2.64101e-007 -9.69331e-018 1.21329e-020 -4.7394e-023 0 0 -0 0.0189956 -0.00119102 -5.96516e-005 -5.41541e-019 0 2.42657e-020 0 0 -0 0.0122698 -0.00324857 -0.000673756 -2.00796e-019 0 -1.94126e-019 0 0 -0 0 0 -0 0 0 -0 3.39842 1.33031 -0.0637918 -5.65207e-008 0.834868 -0.000436188 -3.39935 -2.16518 -0.0642563 -8.89002e-024 -1.18485e-023 -1.48106e-024 -3.39844 1.35642 0.0640283 -3.18788e-007 0.782166 -0.000588827 3.39931 -2.13858 0.0634662 1.1399e-023 0 -0 
2.56972 4.01474 6.29673 -122.359 -89.9975 -75.3593 -1.38986 12.1879 -9.48987 -0.670915 24.4347 -19.3553 -0.670931 24.4347 -19.3553 -0.681236 18.0887 12.0763 -4.38463 -0.133788 0.0666285 -23.003 -0.392287 2.2347 -15.5953 0.956183 -3.28119 -67.657 3.18909 -84.6035 -7.00033 -8.67821e-007 -2.0495e-006 -6.36856e-007 -5.3779e-007 -6.65799e-007 -6.36856e-007 -5.3779e-007 -6.65799e-007 -3.82114e-007 -3.22674e-007 -3.99479e-007 -6.36856e-007 -5.3779e-007 -6.65799e-007 -0.014623 -8.83138e-005 -1.31417e-006 -3.82112e-007 -3.22623e-007 -3.9952e-007 -6.36856e-007 -5.3779e-007 -6.65799e-007 -0.0187827 -0.00117516 6.16363e-005 -3.82115e-007 -3.22608e-007 -3.99528e-007 -6.36856e-007 -5.3779e-007 -6.65799e-007 -0.0122674 -0.00324955 0.00066962 -3.82125e-007 -3.22628e-007 -3.99503e-007 -6.36856e-007 -5.3779e-007 -6.65799e-007 -6.36856e-007 -5.3779e-007 -6.65799e-007 -3.82114e-007 -3.22674e-007 -3.99479e-007 -19.6485 -5.93961 1.54194 -28.0325 -5.541 5.30049 48.6478 -46.0944 171.298 6.99682 2.44363e-005 -5.43266e-006 3.18055e-015 -7.95139e-016 -0 -1.16413e-006 3.96716e-007 1.1607e-006 3.18055e-015 9.93923e-016 -7.95139e-016 3.18055e-015 -7.95139e-016 -0 0.0149864 -9.43665e-005 1.88507e-006 6.36111e-015 -7.95139e-016 -1.78906e-015 3.18055e-015 -7.95139e-016 -0 0.0190145 -0.00120137 -5.90496e-005 -6.36111e-015 9.93923e-016 1.19271e-015 3.18055e-015 -7.95139e-016 -0 0.0122635 -0.0032466 -0.000674813 9.51703e-007 6.28614e-008 5.26588e-007 3.18055e-015 -7.95139e-016 -0 -1.16413e-006 3.96716e-007 1.1607e-006 3.18055e-015 9.93923e-016 -7.95139e-016 -38.5254 -10.8867 -42.721 -169.311 63.8089 165.422 -7.78495 20.2411 -2.54373 -1.1883e-006 -5.36473e-007 3.15835e-006 11.554 -13.5294 2.82177 -6.60258 13.7191 1.86958 8.47597 11.6102 0.810208 -4.28878e-006 2.10116e-006 -6.55991e-007 
2.56963 4.01474 6.29673 -122.359 -89.9975 -75.3593 -1.38986 12.1879 -9.48987 -0.670929 24.4347 -19.3553 -0.670928 24.4347 -19.3553 -0.679493 18.1816 12.0727 -4.32287 0.171609 0.425582 -23.003 -0.392311 2.23471 -15.5953 0.956176 -3.28118 -67.657 3.18909 -84.6035 -7.00032 2.04686e-007 3.78566e-006 1.14634e-006 9.68023e-007 1.19844e-006 -1.14634e-006 -9.68023e-007 -1.19844e-006 -2.54743e-007 -2.15116e-007 -2.66319e-007 1.14634e-006 9.68023e-007 1.19844e-006 -0.0146159 -8.57641e-005 -2.45875e-006 -2.54741e-007 -2.15082e-007 -2.66347e-007 1.14634e-006 9.68023e-007 1.19844e-006 -0.0187845 -0.00117305 5.50873e-005 -2.54743e-007 -2.15072e-007 -2.66352e-007 1.14634e-006 9.68023e-007 1.19844e-006 -0.0122654 -0.00324085 0.000675536 -2.5475e-007 -2.15086e-007 -2.66335e-007 1.14634e-006 9.68023e-007 1.19844e-006 -1.14634e-006 -9.68023e-007 -1.19844e-006 -2.54743e-007 -2.15116e-007 -2.66319e-007 -19.6485 -5.93961 1.54195 -28.0325 -5.54099 5.3005 48.6478 -46.0943 171.298 6.99682 8.73e-006 -3.6282e-006 6.36111e-015 3.97569e-016 2.5842e-015 9.54166e-015 1.98785e-016 7.95139e-016 1.03451e-032 -5.96354e-016 9.93923e-016 6.36111e-015 3.97569e-016 2.5842e-015 0.0150091 -8.69102e-005 -1.78151e-006 -3.18055e-015 3.97569e-016 1.98785e-016 6.36111e-015 3.97569e-016 2.5842e-015 0.0190012 -0.00118578 -6.03449e-005 6.36111e-015 -1.98785e-016 3.37934e-015 6.36111e-015 3.97569e-016 2.5842e-015 0.0122551 -0.00324183 -0.000677689 -6.36111e-015 3.97569e-016 -1.39149e-015 6.36111e-015 3.97569e-016 2.5842e-015 9.54166e-015 1.98785e-016 7.95139e-016 1.03451e-032 -5.96354e-016 9.93923e-016 -38.3973 -10.9829 -42.6056 -169.313 63.8062 165.427 -7.78191 20.2415 -2.54163 -1.59028e-015 3.18055e-015 -0 11.554 -13.5295 2.82178 -6.60257 13.7191 1.86956 8.47594 11.6102 0.810227 -1.59028e-015 -6.36111e-015 -3.97569e-016 
2.56953 4.01473 6.29672 -122.359 -89.9975 -75.3593 -1.38986 12.1879 -9.48987 -0.670925 24.4348 -19.3553 -0.670924 24.4347 -19.3553 -0.677724 18.2747 12.0691 -4.26295 0.477714 0.784611 -23.003 -0.392309 2.23471 -15.5953 0.956171 -3.28118 -67.657 3.1891 -84.6035 -7.00033 1.24429e-006 8.84806e-006 -3.18055e-015 -1.59028e-015 1.59028e-015 5.09485e-007 4.30232e-007 5.32639e-007 2.54743e-007 2.15116e-007 2.66319e-007 -3.18055e-015 -1.59028e-015 1.59028e-015 -0.014615 -8.50099e-005 -1.52454e-006 -4.99e-007 4.276e-007 9.78989e-007 -3.18055e-015 -1.59028e-015 1.59028e-015 -0.0187762 -0.00116867 5.66542e-005 2.54743e-007 2.15072e-007 2.66352e-007 -3.18055e-015 -1.59028e-015 1.59028e-015 -0.0122392 -0.00324646 0.000674546 -4.98725e-007 4.27298e-007 9.79064e-007 -3.18055e-015 -1.59028e-015 1.59028e-015 5.09485e-007 4.30232e-007 5.32639e-007 2.54743e-007 2.15116e-007 2.66319e-007 -19.6485 -5.93962 1.54196 -28.0325 -5.541 5.3005 48.6478 -46.0943 171.298 6.99683 9.1737e-006 -4.78334e-006 3.18055e-015 1.27222e-014 2.0276e-014 -4.43804e-030 1.2921e-014 1.96797e-014 -4.06079e-030 1.27222e-014 1.82882e-014 3.18055e-015 1.27222e-014 2.0276e-014 0.0149878 -8.9252e-005 2.62139e-006 -6.36111e-015 0 -3.97569e-016 3.18055e-015 1.27222e-014 2.0276e-014 0.0190023 -0.00118617 -6.15071e-005 -3.18055e-015 -1.98785e-015 1.19271e-015 3.18055e-015 1.27222e-014 2.0276e-014 0.0122609 -0.00324128 -0.000674193 -9.51702e-007 -6.2864e-008 -5.26587e-007 3.18055e-015 1.27222e-014 2.0276e-014 -4.43804e-030 1.2921e-014 1.96797e-014 -4.06079e-030 1.27222e-014 1.82882e-014 -38.2689 -11.0788 -42.4899 -169.314 63.8035 165.433 -7.77889 20.2419 -2.53953 4.22692e-007 1.56524e-006 3.11132e-006 11.554 -13.5293 2.82175 -6.60256 13.7187 1.86956 8.47593 11.6105 0.810186 -4.28877e-006 2.10116e-006 -6.55991e-007 
